<svg width="29" height="28" viewBox="0 0 29 28" fill="none" xmlns="http://www.w3.org/2000/svg">
<g id="chevron.left">
<path id="chevron.left_2" d="M8.84863 13.6543C8.84863 13.9619 8.96289 14.2256 9.20898 14.4541L16.0469 21.1514C16.2402 21.3447 16.4863 21.4502 16.7764 21.4502C17.3564 21.4502 17.8223 20.9932 17.8223 20.4043C17.8223 20.1143 17.6992 19.8594 17.5059 19.6572L11.3447 13.6543L17.5059 7.65137C17.6992 7.44922 17.8223 7.18555 17.8223 6.9043C17.8223 6.31543 17.3564 5.8584 16.7764 5.8584C16.4863 5.8584 16.2402 5.96387 16.0469 6.15723L9.20898 12.8457C8.96289 13.083 8.84863 13.3467 8.84863 13.6543Z" fill="black"/>
</g>
</svg>
